<svg width="321" height="31" viewBox="0 0 321 31" fill="none" xmlns="http://www.w3.org/2000/svg">
<path d="M28.656 6.996V30.072H25.2L8.388 11.496V25.5L13.932 27.408L12.636 30.036H1.584V27.732L4.968 24.816V6.6L0.936 4.296L2.232 1.704H8.82L25.2 19.74V6.204L19.728 4.296L21.024 1.704H32.076V4.044L28.656 6.996ZM51.3802 0.983998C54.2122 0.983998 56.7082 1.596 58.8682 2.82C61.0282 4.044 62.6962 5.736 63.8722 7.896C65.0482 10.056 65.6362 12.504 65.6362 15.24C65.6362 18.048 64.7362 20.64 62.9362 23.016C61.1602 25.392 58.9522 27.276 56.3122 28.668C53.6722 30.036 51.1762 30.72 48.8242 30.72C46.0162 30.72 43.5322 30.12 41.3722 28.92C39.2362 27.696 37.5682 26.004 36.3682 23.844C35.1922 21.684 34.6042 19.236 34.6042 16.5C34.6042 13.692 35.4922 11.1 37.2682 8.724C39.0442 6.324 41.2522 4.44 43.8922 3.072C46.5322 1.68 49.0282 0.983998 51.3802 0.983998ZM49.2922 5.484C48.0202 5.484 46.8562 5.892 45.8002 6.708C44.7442 7.5 43.9042 8.604 43.2802 10.02C42.6802 11.436 42.3802 13.02 42.3802 14.772C42.3802 16.884 42.6922 18.804 43.3162 20.532C43.9402 22.26 44.8882 23.64 46.1602 24.672C47.4562 25.704 49.0402 26.22 50.9122 26.22C52.1842 26.22 53.3482 25.824 54.4042 25.032C55.4602 24.216 56.3002 23.1 56.9242 21.684C57.5482 20.268 57.8602 18.684 57.8602 16.932C57.8602 14.82 57.5482 12.9 56.9242 11.172C56.3002 9.42 55.3402 8.04 54.0442 7.032C52.7482 6 51.1642 5.484 49.2922 5.484ZM97.4503 29.964H89.3143L82.6903 17.616L81.1423 16.68L82.1143 14.736H83.6983C84.8743 14.736 85.7983 14.34 86.4703 13.548C87.1663 12.756 87.5143 11.652 87.5143 10.236C87.5143 8.628 87.0823 7.32 86.2183 6.312C85.3783 5.28 84.1423 4.764 82.5103 4.764C81.4783 4.764 80.5303 5.064 79.6663 5.664V26.22L83.7343 27.336L82.4383 29.964H69.1543V27.66L72.5383 24.744V5.34L68.5063 4.26L69.8023 1.668H76.3183C78.3583 1.668 80.3863 1.596 82.4023 1.452C83.8423 1.356 84.9103 1.308 85.6063 1.308C87.5023 1.308 89.1823 1.644 90.6463 2.316C92.1343 2.964 93.2743 3.864 94.0663 5.016C94.8823 6.144 95.2903 7.416 95.2903 8.832C95.2903 10.488 94.5703 12.036 93.1303 13.476C91.6903 14.892 89.9023 15.984 87.7663 16.752L90.7903 17.58L95.1823 25.716L98.7823 27.336L97.4503 29.964ZM127.704 11.208L125.436 12.18L120.324 4.8H117.3V26.364L121.368 27.372L120.072 30H106.788V27.696L110.172 25.032V4.8H107.22L102.108 12.18L99.8758 11.208V1.056L102.648 1.704H124.896L127.704 1.056V11.208ZM162.611 30H149.327V27.696L152.711 24.78V17.436H141.119V26.256L145.187 27.372L143.891 30H130.607V27.696L133.991 24.78V5.412L129.959 4.296L131.255 1.704H144.539V3.972L141.119 6.924V14.376H152.711V5.412L148.679 4.296L149.975 1.704H163.259V3.972L159.839 6.924V26.256L163.907 27.372L162.611 30ZM191.956 10.488L189.688 11.46L185.08 4.8H176.944V14.016H180.832L183.46 10.128H185.764V20.856L183.136 22.188L180.688 17.076H176.944V26.076L183.388 27.372L182.092 30H166.432V27.696L169.816 25.032V5.448L165.784 4.296L167.08 1.704H189.148L191.956 1.056V10.488ZM217.956 30.036H194.592V27.732L197.976 25.068V5.304L193.944 4.296L195.24 1.704H208.524V3.972L205.104 6.636V26.904H212.844L218.496 18.804L220.764 19.74V30.684L217.956 30.036ZM254.237 30H240.089V27.696L244.193 25.392L242.177 20.46H231.341L229.613 24.708L234.905 27.372L233.609 30H221.765V27.696L225.833 24.672L234.761 2.856L241.745 1.02L251.825 25.608L255.533 27.372L254.237 30ZM236.777 7.14L232.601 17.4H240.953L236.777 7.14ZM283.89 6.996V30.072H280.434L263.622 11.496V25.5L269.166 27.408L267.87 30.036H256.818V27.732L260.202 24.816V6.6L256.17 4.296L257.466 1.704H264.054L280.434 19.74V6.204L274.962 4.296L276.258 1.704H287.31V4.044L283.89 6.996ZM304.059 27.372L302.763 30H289.479V27.696L292.863 24.78V5.412L288.831 4.296L290.127 1.704H303.411V3.972L299.991 6.924V26.256L304.059 27.372ZM319.143 30H311.151L301.179 15.816L311.367 6.816L307.155 4.296L308.451 1.704H319.611V3.972L308.235 14.052L316.587 25.608L320.439 27.372L319.143 30Z" fill="#009688" fill-opacity="0.8"/>
</svg> 


