<svg width="106" height="11" viewBox="0 0 106 11" fill="none" xmlns="http://www.w3.org/2000/svg">
<path d="M9.396 2.2V10H8.364L2.736 3.58V8.584L4.44 9.22L4.056 10H0.576V9.328L1.704 8.38V2.08L0.372 1.348L0.768 0.568H2.88L8.364 6.808V1.972L6.66 1.348L7.056 0.568H10.536V1.24L9.396 2.2ZM16.985 0.327999C17.905 0.327999 18.717 0.531999 19.421 0.939999C20.125 1.348 20.669 1.912 21.053 2.632C21.437 3.352 21.629 4.168 21.629 5.08C21.629 6.016 21.337 6.88 20.753 7.672C20.169 8.464 19.445 9.092 18.581 9.556C17.725 10.012 16.909 10.24 16.133 10.24C15.213 10.24 14.401 10.04 13.697 9.64C13.001 9.232 12.457 8.668 12.065 7.948C11.681 7.228 11.489 6.412 11.489 5.5C11.489 4.564 11.777 3.7 12.353 2.908C12.937 2.108 13.661 1.48 14.525 1.024C15.389 0.559999 16.209 0.327999 16.985 0.327999ZM16.289 1.708C15.841 1.708 15.429 1.848 15.053 2.128C14.685 2.408 14.393 2.792 14.177 3.28C13.961 3.768 13.853 4.316 13.853 4.924C13.853 5.644 13.961 6.304 14.177 6.904C14.401 7.496 14.733 7.972 15.173 8.332C15.621 8.684 16.173 8.86 16.829 8.86C17.269 8.86 17.673 8.72 18.041 8.44C18.417 8.16 18.713 7.776 18.929 7.288C19.145 6.8 19.253 6.252 19.253 5.644C19.253 4.916 19.145 4.256 18.929 3.664C18.713 3.072 18.381 2.6 17.933 2.248C17.493 1.888 16.945 1.708 16.289 1.708ZM32.1765 10H29.5725L27.2565 5.848L26.7285 5.524L27.0285 4.936H27.5805C28.0125 4.936 28.3525 4.804 28.6005 4.54C28.8485 4.276 28.9725 3.904 28.9725 3.424C28.9725 2.864 28.8205 2.408 28.5165 2.056C28.2205 1.696 27.7845 1.516 27.2085 1.516C26.8485 1.516 26.5125 1.628 26.2005 1.852V8.848L27.5325 9.232L27.1485 10.012H22.9005V9.34L24.0285 8.392V1.732L22.6965 1.36L23.0925 0.58H25.0845C25.7805 0.58 26.4645 0.556 27.1365 0.508C27.6165 0.476 27.9765 0.46 28.2165 0.46C28.8325 0.46 29.3765 0.572 29.8485 0.796C30.3285 1.012 30.6965 1.308 30.9525 1.684C31.2165 2.06 31.3485 2.48 31.3485 2.944C31.3485 3.504 31.1005 4.024 30.6045 4.504C30.1085 4.984 29.5045 5.344 28.7925 5.584L29.7525 5.86L31.3125 8.644L32.5605 9.22L32.1765 10ZM42.0727 3.652L41.4127 3.916L39.7207 1.48H38.6047V8.872L39.9487 9.22L39.5527 10H35.3047V9.328L36.4327 8.44V1.48H35.3647L33.6727 3.916L33.0127 3.652V0.352L33.8767 0.568H41.2087L42.0727 0.352V3.652ZM53.6734 9.988H49.4254V9.316L50.5534 8.368V5.752H46.4854V8.824L47.8174 9.208L47.4334 9.988H43.1854V9.316L44.3134 8.368V1.72L42.9814 1.336L43.3774 0.555999H47.6254V1.228L46.4854 2.188V4.828H50.5534V1.72L49.2214 1.336L49.6174 0.555999H53.8654V1.228L52.7254 2.188V8.836L54.0574 9.208L53.6734 9.988ZM63.3376 3.424L62.6776 3.688L61.1536 1.492H58.3096V4.732H59.7376L60.6136 3.388H61.2856V6.904L60.5056 7.288L59.7256 5.656H58.3096V8.776L60.3976 9.232L60.0016 10.012H55.0096V9.34L56.1376 8.452V1.744L54.8056 1.348L55.2016 0.568H62.4736L63.3376 0.364V3.424ZM72.0289 10H64.3729V9.328L65.5009 8.44V1.696L64.1689 1.348L64.5649 0.568H68.8129V1.24L67.6729 2.128V9.088H70.3729L72.2329 6.4L72.8929 6.676V10.216L72.0289 10ZM84.0274 10H79.5634V9.328L80.8714 8.548L80.1394 6.76H76.4314L75.7714 8.368L77.6074 9.22L77.2234 10H73.3474V9.328L74.6434 8.356L77.7154 0.952L79.7914 0.339999L83.1994 8.608L84.4234 9.22L84.0274 10ZM78.3034 2.236L76.8154 5.836H79.7674L78.3034 2.236ZM93.7476 2.2V10H92.7156L87.0876 3.58V8.584L88.7916 9.22L88.4076 10H84.9276V9.328L86.0556 8.38V2.08L84.7236 1.348L85.1196 0.568H87.2316L92.7156 6.808V1.972L91.0116 1.348L91.4076 0.568H94.8876V1.24L93.7476 2.2ZM100.353 9.22L99.9685 10H95.7205V9.328L96.8485 8.38V1.732L95.5165 1.348L95.9125 0.568H100.161V1.24L99.0205 2.2V8.836L100.353 9.22ZM105.453 10H102.909L99.4885 5.272L102.957 2.224L101.553 1.348L101.949 0.568H105.549V1.24L101.637 4.684L104.541 8.608L105.849 9.22L105.453 10Z" fill="#2D8662" fill-opacity="0.8"/>
</svg>
